<svg width="72" height="45" viewBox="0 0 72 45" fill="none" xmlns="http://www.w3.org/2000/svg">
<path d="M47.25 38.284H9C7.80653 38.284 6.66193 38.0481 5.81802 37.6283C4.97411 37.2084 4.5 36.639 4.5 36.0453V18.1358C4.5 17.542 4.97411 16.9726 5.81802 16.5528C6.66193 16.133 7.80653 15.8971 9 15.8971H47.25C48.4435 15.8971 49.5881 16.133 50.432 16.5528C51.2759 16.9726 51.75 17.542 51.75 18.1358V22.6803L63.945 18.3485C64.2808 18.2295 64.6759 18.1587 65.087 18.1439C65.4982 18.129 65.9096 18.1706 66.2765 18.2642C66.6433 18.3578 66.9514 18.4997 67.1672 18.6744C67.383 18.8492 67.4981 19.05 67.5 19.2551V34.9259C67.4981 35.131 67.383 35.3319 67.1672 35.5066C66.9514 35.6814 66.6433 35.8233 66.2765 35.9168C65.9096 36.0104 65.4982 36.052 65.087 36.0372C64.6759 36.0223 64.2808 35.9515 63.945 35.8326L51.75 31.5007V36.0453C51.75 36.639 51.2759 37.2084 50.432 37.6283C49.5881 38.0481 48.4435 38.284 47.25 38.284Z" fill="#FF0000"/>
<path d="M23.3359 32H21.2578L23.957 24H26.5313L29.2305 32H27.1523L25.2734 26.0156H25.2109L23.3359 32ZM23.0586 28.8516H27.4023V30.3203H23.0586V28.8516ZM34.1689 26.3984C34.1429 26.112 34.027 25.8893 33.8213 25.7305C33.6182 25.569 33.3278 25.4883 32.9502 25.4883C32.7002 25.4883 32.4919 25.5208 32.3252 25.5859C32.1585 25.651 32.0335 25.7409 31.9502 25.8555C31.8669 25.9674 31.8239 26.0964 31.8213 26.2422C31.8161 26.362 31.8395 26.4674 31.8916 26.5586C31.9463 26.6497 32.0244 26.7305 32.126 26.8008C32.2301 26.8685 32.3551 26.9284 32.501 26.9805C32.6468 27.0326 32.8109 27.0781 32.9932 27.1172L33.6807 27.2734C34.0765 27.3594 34.4255 27.474 34.7275 27.6172C35.0322 27.7604 35.2874 27.931 35.4932 28.1289C35.7015 28.3268 35.859 28.5547 35.9658 28.8125C36.0726 29.0703 36.1273 29.3594 36.1299 29.6797C36.1273 30.1849 35.9997 30.6185 35.7471 30.9805C35.4945 31.3424 35.1312 31.6198 34.6572 31.8125C34.1859 32.0052 33.6169 32.1016 32.9502 32.1016C32.2809 32.1016 31.6976 32.0013 31.2002 31.8008C30.7028 31.6003 30.3161 31.2956 30.04 30.8867C29.764 30.4779 29.6221 29.9609 29.6143 29.3359H31.4658C31.4814 29.5938 31.5505 29.8086 31.6729 29.9805C31.7952 30.1523 31.9632 30.2826 32.1768 30.3711C32.3929 30.4596 32.6429 30.5039 32.9268 30.5039C33.1872 30.5039 33.4085 30.4687 33.5908 30.3984C33.7757 30.3281 33.9176 30.2305 34.0166 30.1055C34.1156 29.9805 34.1663 29.8372 34.1689 29.6758C34.1663 29.5247 34.1195 29.3958 34.0283 29.2891C33.9372 29.1797 33.7965 29.0859 33.6064 29.0078C33.4189 28.9271 33.1794 28.8529 32.8877 28.7852L32.0518 28.5898C31.359 28.431 30.8135 28.1745 30.415 27.8203C30.0166 27.4635 29.8187 26.9818 29.8213 26.375C29.8187 25.8802 29.9515 25.4466 30.2197 25.0742C30.488 24.7018 30.859 24.4115 31.333 24.2031C31.807 23.9948 32.3473 23.8906 32.9541 23.8906C33.5739 23.8906 34.1117 23.9961 34.5674 24.207C35.0257 24.4154 35.3812 24.7083 35.6338 25.0859C35.8864 25.4635 36.0153 25.901 36.0205 26.3984H34.1689Z" fill="#FFD700"/>
<path d="M23.3359 32V34H24.8052L25.2445 32.598L23.3359 32ZM21.2578 32L19.3628 31.3606L18.4722 34H21.2578V32ZM23.957 24V22H22.5211L22.062 23.3606L23.957 24ZM26.5313 24L28.4263 23.3606L27.9672 22H26.5313V24ZM29.2305 32V34H32.016L31.1255 31.3606L29.2305 32ZM27.1523 32L25.2442 32.5991L25.684 34H27.1523V32ZM25.2734 26.0156L27.1816 25.4165L26.7418 24.0156H25.2734V26.0156ZM25.2109 26.0156V24.0156H23.7417L23.3024 25.4177L25.2109 26.0156ZM23.0586 28.8516V26.8516H21.0586V28.8516H23.0586ZM27.4023 28.8516H29.4023V26.8516H27.4023V28.8516ZM27.4023 30.3203V32.3203H29.4023V30.3203H27.4023ZM23.0586 30.3203H21.0586V32.3203H23.0586V30.3203ZM23.3359 30H21.2578V34H23.3359V30ZM23.1529 32.6394L25.8521 24.6394L22.062 23.3606L19.3628 31.3606L23.1529 32.6394ZM23.957 26H26.5313V22H23.957V26ZM24.6362 24.6394L27.3354 32.6394L31.1255 31.3606L28.4263 23.3606L24.6362 24.6394ZM29.2305 30H27.1523V34H29.2305V30ZM29.0605 31.4009L27.1816 25.4165L23.3653 26.6147L25.2442 32.5991L29.0605 31.4009ZM25.2734 24.0156H25.2109V28.0156H25.2734V24.0156ZM23.3024 25.4177L21.4274 31.402L25.2445 32.598L27.1195 26.6136L23.3024 25.4177ZM23.0586 30.8516H27.4023V26.8516H23.0586V30.8516ZM25.4023 28.8516V30.3203H29.4023V28.8516H25.4023ZM27.4023 28.3203H23.0586V32.3203H27.4023V28.3203ZM25.0586 30.3203V28.8516H21.0586V30.3203H25.0586ZM34.1689 26.3984L32.1772 26.5795L32.3425 28.3984H34.1689V26.3984ZM33.8213 25.7305L32.5768 27.2961L32.5878 27.3049L32.599 27.3135L33.8213 25.7305ZM32.3252 25.5859L31.5975 23.723L31.5975 23.723L32.3252 25.5859ZM31.9502 25.8555L33.5547 27.0495L33.5612 27.0407L33.5677 27.0318L31.9502 25.8555ZM31.8213 26.2422L33.8194 26.3291L33.8205 26.3035L33.821 26.2779L31.8213 26.2422ZM31.8916 26.5586L30.1551 27.5509L30.1657 27.5693L30.1766 27.5876L31.8916 26.5586ZM32.126 26.8008L30.9876 28.4452L31.0115 28.4618L31.036 28.4777L32.126 26.8008ZM32.501 26.9805L33.1737 25.097L33.1736 25.097L32.501 26.9805ZM32.9932 27.1172L33.4364 25.1669L33.4243 25.1642L33.4122 25.1616L32.9932 27.1172ZM33.6807 27.2734L33.2374 29.2237L33.2469 29.2259L33.2563 29.2279L33.6807 27.2734ZM34.7275 27.6172L33.8707 29.4244L33.8767 29.4272L34.7275 27.6172ZM35.4932 28.1289L34.1066 29.5702L34.1157 29.5789L35.4932 28.1289ZM35.9658 28.8125L34.118 29.5778L34.118 29.5778L35.9658 28.8125ZM36.1299 29.6797L38.1299 29.69L38.1299 29.6767L38.1298 29.6634L36.1299 29.6797ZM35.7471 30.9805L34.1069 29.8359L34.1069 29.8359L35.7471 30.9805ZM34.6572 31.8125L33.9039 29.9598L33.9004 29.9612L34.6572 31.8125ZM31.2002 31.8008L31.948 29.9458L31.2002 31.8008ZM30.04 30.8867L28.3825 32.0058L30.04 30.8867ZM29.6143 29.3359V27.3359H27.5891L27.6144 29.3609L29.6143 29.3359ZM31.4658 29.3359L33.4622 29.2149L33.3483 27.3359H31.4658V29.3359ZM31.6729 29.9805L30.0437 31.1406L31.6729 29.9805ZM32.1768 30.3711L31.4107 32.2186L31.4186 32.2218L32.1768 30.3711ZM33.5908 30.3984L32.8799 28.529L32.8711 28.5324L33.5908 30.3984ZM34.0166 30.1055L32.4485 28.8641L32.4485 28.8641L34.0166 30.1055ZM34.1689 29.6758L36.1687 29.708L36.1692 29.6747L36.1686 29.6413L34.1689 29.6758ZM34.0283 29.2891L32.4919 30.5694L32.4995 30.5786L32.5072 30.5876L34.0283 29.2891ZM33.6064 29.0078L32.8155 30.8448L32.8308 30.8514L32.8462 30.8577L33.6064 29.0078ZM32.8877 28.7852L32.4327 30.7327L32.4354 30.7334L32.8877 28.7852ZM32.0518 28.5898L32.5068 26.6423L32.4988 26.6404L32.0518 28.5898ZM30.415 27.8203L29.0809 29.3103L29.0863 29.3151L30.415 27.8203ZM29.8213 26.375L31.8213 26.3836L31.8213 26.374L31.8213 26.3645L29.8213 26.375ZM30.2197 25.0742L28.5969 23.9053V23.9053L30.2197 25.0742ZM31.333 24.2031L32.1378 26.0341L32.1378 26.0341L31.333 24.2031ZM34.5674 24.207L33.7273 26.0221L33.7398 26.0278L34.5674 24.207ZM35.6338 25.0859L37.2961 23.9739V23.9739L35.6338 25.0859ZM36.0205 26.3984V28.3984H38.0416L38.0204 26.3775L36.0205 26.3984ZM36.1607 26.2174C36.0903 25.4425 35.7392 24.6845 35.0436 24.1475L32.599 27.3135C32.4806 27.2221 32.3692 27.0951 32.2884 26.94C32.2099 26.7892 32.1843 26.658 32.1772 26.5795L36.1607 26.2174ZM35.0658 24.1648C34.3793 23.6191 33.5805 23.4883 32.9502 23.4883V27.4883C33.0015 27.4883 32.9822 27.4943 32.9154 27.4757C32.8438 27.4558 32.716 27.4068 32.5768 27.2961L35.0658 24.1648ZM32.9502 23.4883C32.5429 23.4883 32.0684 23.5391 31.5975 23.723L33.0529 27.4489C32.9797 27.4775 32.9297 27.4865 32.9152 27.4887C32.9005 27.491 32.9102 27.4883 32.9502 27.4883V23.4883ZM31.5975 23.723C31.1678 23.8909 30.6933 24.1834 30.3327 24.6791L33.5677 27.0318C33.3738 27.2984 33.1493 27.4112 33.0529 27.4489L31.5975 23.723ZM30.3457 24.6614C30.0012 25.1244 29.8313 25.6627 29.8216 26.2065L33.821 26.2779C33.8165 26.53 33.7325 26.8105 33.5547 27.0495L30.3457 24.6614ZM29.8232 26.1553C29.804 26.5974 29.8902 27.0872 30.1551 27.5509L33.6281 25.5663C33.7889 25.8477 33.8282 26.1266 33.8194 26.3291L29.8232 26.1553ZM30.1766 27.5876C30.3994 27.9589 30.6899 28.2391 30.9876 28.4452L33.2644 25.1564C33.3589 25.2219 33.4932 25.3406 33.6066 25.5296L30.1766 27.5876ZM31.036 28.4777C31.2981 28.648 31.5701 28.7717 31.8283 28.864L33.1736 25.097C33.1585 25.0916 33.1554 25.0897 33.1621 25.0929C33.1687 25.096 33.1879 25.1056 33.216 25.1239L31.036 28.4777ZM31.8283 28.864C32.0717 28.9509 32.3225 29.0189 32.5741 29.0728L33.4122 25.1616C33.2993 25.1374 33.222 25.1142 33.1737 25.097L31.8283 28.864ZM32.5499 29.0675L33.2374 29.2237L34.1239 25.3232L33.4364 25.1669L32.5499 29.0675ZM33.2563 29.2279C33.5331 29.288 33.7321 29.3586 33.8707 29.4243L35.5844 25.81C35.1188 25.5893 34.6199 25.4308 34.105 25.319L33.2563 29.2279ZM33.8767 29.4272C34.0184 29.4938 34.0834 29.548 34.1066 29.5702L36.8797 26.6876C36.4914 26.314 36.046 26.027 35.5784 25.8072L33.8767 29.4272ZM34.1157 29.5789C34.12 29.583 34.1223 29.5856 34.123 29.5865C34.1238 29.5873 34.1234 29.587 34.1225 29.5857C34.1216 29.5843 34.1205 29.5826 34.1195 29.5808C34.1191 29.5799 34.1187 29.5792 34.1184 29.5786C34.1183 29.5784 34.1182 29.5781 34.1181 29.578C34.118 29.5778 34.118 29.5777 34.118 29.5778L37.8136 28.0472C37.5965 27.523 37.2758 27.0637 36.8707 26.6789L34.1157 29.5789ZM34.118 29.5778C34.1129 29.5655 34.1291 29.5951 34.1299 29.6959L38.1298 29.6634C38.1254 29.1237 38.0322 28.5751 37.8136 28.0472L34.118 29.5778ZM34.1299 29.6694C34.1295 29.7561 34.1186 29.8022 34.1136 29.8191C34.111 29.828 34.1091 29.8322 34.1086 29.8332C34.1081 29.8341 34.1078 29.8347 34.1069 29.8359L37.3872 32.125C37.9045 31.3837 38.1255 30.5404 38.1299 29.69L34.1299 29.6694ZM34.1069 29.8359C34.1031 29.8414 34.0947 29.8526 34.0715 29.8703C34.0466 29.8893 33.9958 29.9224 33.9039 29.9598L35.4105 33.6652C36.184 33.3507 36.8801 32.8516 37.3872 32.125L34.1069 29.8359ZM33.9004 29.9612C33.731 30.0305 33.4336 30.1016 32.9502 30.1016V34.1016C33.8001 34.1016 34.6408 33.9799 35.4141 33.6638L33.9004 29.9612ZM32.9502 30.1016C32.4759 30.1016 32.1568 30.03 31.948 29.9458L30.4524 33.6557C31.2384 33.9726 32.086 34.1016 32.9502 34.1016V30.1016ZM31.948 29.9458C31.7867 29.8808 31.731 29.8171 31.6976 29.7676L28.3825 32.0058C28.9011 32.7741 29.6189 33.3197 30.4524 33.6557L31.948 29.9458ZM31.6976 29.7676C31.6916 29.7587 31.6183 29.6494 31.6141 29.3109L27.6144 29.3609C27.6258 30.2724 27.8364 31.197 28.3825 32.0058L31.6976 29.7676ZM29.6143 31.3359H31.4658V27.3359H29.6143V31.3359ZM29.4695 29.4569C29.5027 30.0047 29.6599 30.6016 30.0437 31.1406L33.302 28.8203C33.441 29.0156 33.4602 29.1828 33.4622 29.2149L29.4695 29.4569ZM30.0437 31.1406C30.4043 31.6469 30.885 32.0006 31.4107 32.2186L32.9428 28.5236C32.986 28.5415 33.0477 28.5734 33.116 28.6263C33.1853 28.6801 33.249 28.746 33.302 28.8203L30.0437 31.1406ZM31.4186 32.2218C31.9211 32.4277 32.4374 32.5039 32.9268 32.5039V28.5039C32.8883 28.5039 32.8724 28.5009 32.8751 28.5013C32.8784 28.5019 32.9003 28.5062 32.9349 28.5204L31.4186 32.2218ZM32.9268 32.5039C33.3561 32.5039 33.8362 32.4474 34.3106 32.2644L32.8711 28.5324C32.9286 28.5103 32.9661 28.5036 32.9744 28.5023C32.9825 28.501 32.9683 28.5039 32.9268 28.5039V32.5039ZM34.3017 32.2678C34.7431 32.1 35.2138 31.8154 35.5847 31.3469L32.4485 28.8641C32.6215 28.6455 32.8083 28.5563 32.8799 28.529L34.3017 32.2678ZM35.5847 31.3469C35.9603 30.8724 36.1591 30.3029 36.1687 29.708L32.1692 29.6435C32.1712 29.521 32.1924 29.3812 32.2439 29.236C32.2955 29.0904 32.3683 28.9653 32.4485 28.8641L35.5847 31.3469ZM36.1686 29.6413C36.1587 29.0641 35.9657 28.4782 35.5494 27.9905L32.5072 30.5876C32.4012 30.4634 32.3125 30.315 32.2522 30.1493C32.1927 29.9856 32.1714 29.8339 32.1692 29.7103L36.1686 29.6413ZM35.5648 28.0087C35.1932 27.5628 34.7334 27.3086 34.3667 27.1579L32.8462 30.8577C32.8442 30.8569 32.8053 30.841 32.7451 30.8008C32.6843 30.7603 32.5899 30.6871 32.4919 30.5694L35.5648 28.0087ZM34.3974 27.1708C34.0628 27.0268 33.6993 26.9204 33.34 26.837L32.4354 30.7334C32.6595 30.7854 32.7751 30.8274 32.8155 30.8448L34.3974 27.1708ZM33.3427 26.8376L32.5068 26.6423L31.5967 30.5374L32.4327 30.7327L33.3427 26.8376ZM32.4988 26.6404C32.0285 26.5326 31.8214 26.3945 31.7438 26.3255L29.0863 29.3151C29.8056 29.9545 30.6896 30.3294 31.6047 30.5392L32.4988 26.6404ZM31.7492 26.3303C31.7558 26.3362 31.7689 26.3494 31.7837 26.3702C31.7986 26.3911 31.81 26.4126 31.8177 26.4314C31.8341 26.4711 31.8209 26.4663 31.8213 26.3836L27.8213 26.3664C27.8166 27.4595 28.1968 28.5186 29.0809 29.3103L31.7492 26.3303ZM31.8213 26.3645C31.8209 26.3008 31.8291 26.2713 31.8312 26.2645C31.8329 26.2591 31.8346 26.2542 31.8426 26.2431L28.5969 23.9053C28.0617 24.6484 27.8167 25.5026 27.8213 26.3855L31.8213 26.3645ZM31.8426 26.2431C31.8764 26.1962 31.948 26.1175 32.1378 26.0341L30.5282 22.3722C29.7701 22.7054 29.0995 23.2075 28.5969 23.9053L31.8426 26.2431ZM32.1378 26.0341C32.3183 25.9547 32.5773 25.8906 32.9541 25.8906V21.8906C32.1174 21.8906 31.2957 22.0349 30.5282 22.3722L32.1378 26.0341ZM32.9541 25.8906C33.3501 25.8906 33.5891 25.9581 33.7273 26.022L35.4075 22.392C34.6343 22.0341 33.7977 21.8906 32.9541 21.8906V25.8906ZM33.7398 26.0278C33.8972 26.0993 33.9477 26.1625 33.9715 26.198L37.2961 23.9739C36.8147 23.2542 36.1543 22.7314 35.395 22.3863L33.7398 26.0278ZM33.9715 26.198C33.9875 26.2219 34.0191 26.2724 34.0206 26.4194L38.0204 26.3775C38.0115 25.5297 37.7853 24.7052 37.2961 23.9739L33.9715 26.198ZM36.0205 24.3984H34.1689V28.3984H36.0205V24.3984Z" fill="#181313" fill-opacity="0.38"/>
<ellipse cx="14.5946" cy="10.3448" rx="10.2162" ry="5.43104" fill="#FF0000"/>
<ellipse cx="40.3784" cy="7.88793" rx="14.5946" ry="7.88793" fill="#FF0000"/>
<path d="M62.9474 35.431V18.4914L64.4211 17.8448L67.579 18.4914V35.431L65.4737 36.3362L62.9474 35.431Z" fill="#640000"/>
<ellipse cx="48.2105" cy="5.0431" rx="3.57895" ry="2.19828" fill="#1A1A1A"/>
<ellipse cx="46.5263" cy="11.25" rx="3.57895" ry="2.19828" fill="#1A1A1A"/>
<ellipse cx="36.8421" cy="12.5431" rx="3.57895" ry="2.19828" fill="#1A1A1A"/>
<ellipse cx="32.2105" cy="7.37069" rx="3.57895" ry="2.19828" fill="#1A1A1A"/>
<ellipse cx="18.7368" cy="8.14655" rx="2.31579" ry="1.42241" fill="#1A1A1A"/>
<ellipse cx="17.0526" cy="12.5431" rx="2.31579" ry="1.42241" fill="#1A1A1A"/>
<ellipse cx="9.47369" cy="12.5431" rx="2.31579" ry="1.42241" fill="#1A1A1A"/>
<ellipse cx="11.5789" cy="8.14655" rx="2.31579" ry="1.42241" fill="#1A1A1A"/>
<ellipse cx="39.3684" cy="2.71552" rx="3.57895" ry="2.19828" fill="#1A1A1A"/>
</svg>
